<svg width="32" height="32" viewBox="0 0 32 32" fill="none" xmlns="http://www.w3.org/2000/svg">
  <path d="M27.5827 4.22559L17.5732 11.1356L19.3065 7.11814L27.5827 4.22559Z" fill="#E17726" stroke="#E17726" stroke-width="0.25" stroke-linecap="round" stroke-linejoin="round"/>
  <path d="M4.41748 4.22559L14.3339 11.2099L12.6937 7.11814L4.41748 4.22559Z" fill="#E27625" stroke="#E27625" stroke-width="0.25" stroke-linecap="round" stroke-linejoin="round"/>
  <path d="M23.9491 21.9131L21.2051 26.2L27.0851 27.8411L28.7937 22.0245L23.9491 21.9131Z" fill="#E27625" stroke="#E27625" stroke-width="0.25" stroke-linecap="round" stroke-linejoin="round"/>
  <path d="M3.21484 22.0245L4.91484 27.8411L10.7948 26.2L8.05886 21.9131L3.21484 22.0245Z" fill="#E27625" stroke="#E27625" stroke-width="0.25" stroke-linecap="round" stroke-linejoin="round"/>
  <path d="M10.4561 14.7149L8.97461 17.1966L14.7875 17.4937L14.5875 11.2471L10.4561 14.7149Z" fill="#E27625" stroke="#E27625" stroke-width="0.25" stroke-linecap="round" stroke-linejoin="round"/>
  <path d="M21.5436 14.7149L17.3379 11.1728L17.2122 17.4937L23.0251 17.1966L21.5436 14.7149Z" fill="#E27625" stroke="#E27625" stroke-width="0.25" stroke-linecap="round" stroke-linejoin="round"/>
  <path d="M10.7949 26.2L14.4321 24.4475L11.2635 22.0772L10.7949 26.2Z" fill="#E27625" stroke="#E27625" stroke-width="0.25" stroke-linecap="round" stroke-linejoin="round"/>
  <path d="M17.5684 24.4475L21.2056 26.2L20.737 22.0772L17.5684 24.4475Z" fill="#E27625" stroke="#E27625" stroke-width="0.25" stroke-linecap="round" stroke-linejoin="round"/>
</svg>