<svg width="32" height="32" viewBox="0 0 32 32" fill="none" xmlns="http://www.w3.org/2000/svg">
  <path d="M8.19173 11.2347C12.8309 6.67694 20.2943 6.67694 24.9335 11.2347L25.4019 11.6943C25.5991 11.8873 25.5991 12.2001 25.4019 12.3931L23.4977 14.2625C23.3991 14.359 23.2397 14.359 23.1411 14.2625L22.4883 13.6243C19.1931 10.3933 13.9321 10.3933 10.6369 13.6243L9.93436 14.3139C9.83576 14.4104 9.67636 14.4104 9.57776 14.3139L7.67356 12.4445C7.47636 12.2515 7.47636 11.9387 7.67356 11.7457L8.19173 11.2347ZM28.7343 14.9521L30.4227 16.6041C30.6199 16.7971 30.6199 17.1099 30.4227 17.3029L22.8911 24.6905C22.6939 24.8835 22.3751 24.8835 22.1779 24.6905L16.8647 19.4761C16.8154 19.4279 16.7333 19.4279 16.684 19.4761L11.3709 24.6905C11.1737 24.8835 10.8549 24.8835 10.6577 24.6905L3.10252 17.3029C2.90532 17.1099 2.90532 16.7971 3.10252 16.6041L4.79092 14.9521C4.98812 14.7591 5.30692 14.7591 5.50412 14.9521L10.8173 20.1665C10.8666 20.2147 10.9487 20.2147 10.998 20.1665L16.3111 14.9521C16.5083 14.7591 16.8271 14.7591 17.0243 14.9521L22.3375 20.1665C22.3868 20.2147 22.4689 20.2147 22.5182 20.1665L27.8313 14.9521C28.0531 14.7591 28.3719 14.7591 28.7343 14.9521Z" fill="#3B99FC"/>
</svg>